<?xml version="1.0" encoding="UTF-8"?>
<svg viewBox="0 0 793.7 1122.5" xmlns="http://www.w3.org/2000/svg" xmlns:xlink="http://www.w3.org/1999/xlink">
 <defs>
  <linearGradient id="a">
   <stop stop-color="#e9b487" offset="0"/>
   <stop stop-color="#ffdc84" offset="1"/>
  </linearGradient>
  <radialGradient id="d" cx="701.69" cy="159.29" r="2.2788" gradientTransform="matrix(.67469 0 0 1.4822 -4 59)" gradientUnits="userSpaceOnUse" spreadMethod="reflect" xlink:href="#a"/>
  <radialGradient id="e" cx="309.89" cy="496.57" r="1.969" gradientTransform="matrix(.91168 0 0 1.0969 -4 56)" gradientUnits="userSpaceOnUse" spreadMethod="reflect" xlink:href="#a"/>
 </defs>
 <g fill-rule="evenodd" stroke="#385460" stroke-width="12.5">
  <path d="m173.12 738.8c-14.603 14.246-26.343 38.372-28.502 59.04-2.591 24.799 3.1607 54.824 14.251 77.362 9.9468 20.214 28.773 40.566 48.86 50.896 27.415 14.099 68.439 32.091 93.649 22.394 27.722-10.662 37.892-64.781 65.147-83.47 20.248-13.885 55.738-3.0226 77.362-14.251 13.663-7.0944 27.331-24.474 28.502-40.717 9.6872-134.41-0.70218-274.39 4.0717-411.24 1.3337-38.232 19.173-77.662 14.251-114.01-3.9002-28.802-19.893-62.345-40.717-81.434-19.893-18.235-48.08-45.146-81.434-30.538-38.096 16.685-26.864 69.482-24.43 85.506 5.7094 37.586 19.672 74.336 24.43 111.97 2.7063 21.404 3.3734 44.262-2.0359 65.147-19.021 73.442-38.345 151.05-71.255 217.84-13.236 26.861-42.415 45.774-67.183 63.112-15.949 11.164-41.747 9.4962-54.968 22.394z" fill="url(#d)"/>
  <path d="m388.92 426.35c-33.87 9.865-65.634 16.292-93.649 34.61-7.2729 4.7554-14.272 26.674-12.215 34.61 2.693 10.387 17.298 26.539 16.287 36.645-1.7038 17.038-25.097 27.447-24.43 44.789 0.69025 17.947 31.356 33.738 34.61 52.932 3.5329 20.844-18.469 46.798-14.251 67.183 3.9258 18.975 30.23 32.303 38.681 50.896 5.1209 11.266-5.8612 30.784 2.0359 38.681 14.497 14.497 42.235 26.236 65.147 28.502 38.842 3.8415 84.092 2.5106 120.12-10.179 23.696-8.3473 49.371-32.715 59.04-52.932 5.2604-10.999-3.7106-35.582-14.251-40.717-15.926-7.7586-43.441 2.3373-65.147 2.0359-27.154-0.37714-90.024-4.0717-81.434-4.0717 16.52 0 118.02 18.422 156.76 4.0717 16.222-6.0082 13.696-46.268 8.1434-65.147-4.6266-15.73-21.805-36.124-38.681-38.681-50.307-7.6223-162.87 7.804-162.87 8.1434 0 0.33923 111.09-12.642 162.87-6.1075 18.121 2.287 36.284 37.694 46.825 32.574 13.211-6.4166 24.019-45.386 24.43-67.183 0.26733-14.169-12.818-28.83-22.394-40.717-10.104-12.543-21.591-29.856-36.645-32.574-33.806-6.1039-73.559 2.2274-109.94 6.1076-14.52 1.5488-28.361 9.0722-42.753 10.179-12.074 0.92871-24.43-2.7145-36.645-4.0718 0 0 28.502 8.1434 38.681 6.1076s63.112-16.287 63.112-16.287c28.502 0 59.131-6.381 85.506 0 15.699 3.7982 32.804 32.422 40.717 30.538 6.3382-1.5091 6.3092-28.372 2.0359-40.717-7.9418-22.943-23.634-45.232-38.681-65.147-8.0257-10.622-18.463-24.17-30.538-26.466-16.331-3.1057-104.45 11.901-140.47 22.394z" fill="url(#e)"/>
 </g>
</svg>
