<?xml version="1.0" encoding="UTF-8"?>
<!DOCTYPE svg  PUBLIC '-//W3C//DTD SVG 1.1//EN'  'http://www.w3.org/Graphics/SVG/1.1/DTD/svg11.dtd'>
<svg enable-background="new 0 0 100 100" version="1.1" viewBox="0 0 100 100" xml:space="preserve" xmlns="http://www.w3.org/2000/svg">
	<path d="M50,5C25.187,5,5,25.187,5,50c0,24.813,20.187,45,45,45c24.814,0,45-20.188,45-45C95,25.187,74.813,5,50,5z M50,89.204   c-21.617,0-39.204-17.587-39.204-39.204S28.382,10.796,50,10.796S89.205,28.383,89.205,50S71.617,89.204,50,89.204z"/>
	<path d="m50 10.796c-21.618 0-39.204 17.587-39.204 39.204s17.587 39.204 39.204 39.204 39.205-17.587 39.205-39.204-17.587-39.204-39.205-39.204zm-13.033 13.94c4.122 0 7.463 5.19 7.463 11.592s-3.341 11.592-7.463 11.592-7.463-5.19-7.463-11.592 3.341-11.592 7.463-11.592zm27.523 44.787h-28.979c-1.6 0-2.898-1.297-2.898-2.897s1.297-2.897 2.898-2.897h28.979c1.601 0 2.898 1.295 2.896 2.897 1e-3 1.601-1.295 2.897-2.896 2.897zm-1.457-21.603c-4.123 0-7.465-5.19-7.465-11.592s3.342-11.592 7.465-11.592c4.121 0 7.464 5.19 7.464 11.592s-3.343 11.592-7.464 11.592z" fill="#FFF200"/>
	<ellipse cx="36.967" cy="36.328" rx="7.463" ry="11.592"/>
	<ellipse cx="63.033" cy="36.328" rx="7.465" ry="11.592"/>
	<path d="m64.49 63.729h-28.979c-1.601 0-2.898 1.297-2.898 2.897s1.298 2.897 2.898 2.897h28.979c1.601 0 2.896-1.297 2.896-2.897 3e-3 -1.603-1.295-2.897-2.896-2.897z"/>
</svg>
